<?xml version="1.0" encoding="utf-8"?>
<!-- Generator: Adobe Illustrator 24.3.0, SVG Export Plug-In . SVG Version: 6.00 Build 0)  -->
<svg version="1.1" id="Layer_1" xmlns="http://www.w3.org/2000/svg" xmlns:xlink="http://www.w3.org/1999/xlink" x="0px" y="0px"
	 viewBox="0 0 916.3 150" style="enable-background:new 0 0 916.3 150;" xml:space="preserve">
<style type="text/css">
	.st0{fill:none;stroke:#BB86FC;stroke-width:3;stroke-miterlimit:10;}
	.st1{fill:#BB86FC;}
</style>
<circle class="st0" cx="75" cy="75" r="75"/>
<circle class="st1" cx="150" cy="75" r="73.5"/>
<path class="st1" d="M323.9,102.8c-5,0-9.3-0.8-12.8-2.5c-3.5-1.7-6.2-4.2-8.1-7.4c-1.9-3.3-3-7.2-3.2-11.8c-0.1-2.2-0.1-4.5-0.1-7
	s0-4.9,0.1-7.2c0.2-4.6,1.3-8.5,3.2-11.7c2-3.3,4.7-5.7,8.2-7.4c3.5-1.7,7.7-2.6,12.6-2.6c3.6,0,6.8,0.5,9.8,1.4
	c2.9,0.9,5.5,2.2,7.6,3.9c2.1,1.7,3.8,3.7,5,6c1.2,2.3,1.8,4.9,1.9,7.7c0,0.5-0.2,0.9-0.6,1.2c-0.3,0.3-0.7,0.5-1.2,0.5h-9.1
	c-0.6,0-1.1-0.2-1.5-0.5c-0.4-0.3-0.7-0.9-0.9-1.6c-0.8-3.1-2.1-5.3-4-6.5c-1.9-1.2-4.2-1.8-7-1.8c-3.3,0-5.9,0.9-7.8,2.7
	c-1.9,1.8-3,4.8-3.1,9c-0.2,4.4-0.2,8.9,0,13.4c0.2,4.2,1.2,7.2,3.1,9c1.9,1.8,4.5,2.7,7.8,2.7c2.8,0,5.1-0.6,7-1.8
	c1.9-1.2,3.3-3.4,4-6.5c0.2-0.8,0.5-1.3,0.9-1.6c0.4-0.3,0.9-0.5,1.5-0.5h9.1c0.5,0,0.9,0.2,1.2,0.5c0.4,0.3,0.6,0.7,0.6,1.2
	c-0.1,2.8-0.7,5.4-1.9,7.7c-1.2,2.3-2.8,4.3-5,6c-2.1,1.7-4.7,3-7.6,3.9C330.7,102.3,327.4,102.8,323.9,102.8z M379.3,102.8
	c-4.9,0-9-0.8-12.6-2.4c-3.5-1.6-6.3-4-8.2-7.2c-2-3.3-3-7.3-3.2-12.2c-0.1-2.3-0.1-4.6-0.1-6.8c0-2.3,0-4.6,0.1-7
	c0.2-4.8,1.2-8.8,3.2-12.1c2-3.3,4.8-5.8,8.3-7.4c3.6-1.7,7.7-2.5,12.5-2.5c4.7,0,8.8,0.8,12.3,2.5c3.6,1.7,6.4,4.1,8.4,7.4
	c2,3.3,3.1,7.3,3.2,12.1c0.1,2.3,0.2,4.7,0.2,7c0,2.2-0.1,4.5-0.2,6.8c-0.2,4.9-1.2,9-3.2,12.2c-2,3.2-4.7,5.6-8.2,7.2
	S384.1,102.8,379.3,102.8z M379.3,92.5c3.1,0,5.6-0.9,7.6-2.8c2-1.9,3.1-5,3.2-9.1c0.1-2.3,0.2-4.5,0.2-6.6c0-2.1-0.1-4.3-0.2-6.6
	c-0.1-2.8-0.6-5-1.5-6.8c-1-1.8-2.2-3-3.8-3.8c-1.5-0.9-3.4-1.3-5.4-1.3c-2.1,0-3.9,0.4-5.5,1.3c-1.6,0.8-2.9,2.1-3.8,3.8
	c-0.9,1.8-1.4,4-1.5,6.8c-0.1,2.3-0.1,4.5-0.1,6.6c0,2,0,4.2,0.1,6.6c0.2,4.2,1.2,7.2,3.2,9.1C373.6,91.5,376.2,92.5,379.3,92.5z
	 M415.4,102c-0.6,0-1.1-0.2-1.4-0.6c-0.4-0.4-0.6-0.9-0.6-1.4V48c0-0.6,0.2-1.1,0.6-1.4c0.4-0.4,0.9-0.6,1.4-0.6h7.3
	c0.8,0,1.4,0.2,1.8,0.6c0.4,0.4,0.6,0.7,0.7,0.9l21.4,33.4V48c0-0.6,0.2-1.1,0.6-1.4c0.4-0.4,0.8-0.6,1.4-0.6h8.2
	c0.6,0,1.1,0.2,1.4,0.6c0.4,0.4,0.6,0.9,0.6,1.4v52c0,0.5-0.2,1-0.6,1.4c-0.4,0.4-0.9,0.6-1.4,0.6h-7.4c-0.8,0-1.4-0.2-1.8-0.6
	c-0.3-0.4-0.6-0.7-0.7-0.9l-21.3-32.3V100c0,0.6-0.2,1.1-0.6,1.4c-0.4,0.4-0.9,0.6-1.4,0.6H415.4z M472.4,102
	c-0.6,0-1.1-0.2-1.4-0.6c-0.4-0.4-0.6-0.9-0.6-1.4V48c0-0.6,0.2-1.1,0.6-1.4c0.4-0.4,0.9-0.6,1.4-0.6h7.3c0.8,0,1.4,0.2,1.8,0.6
	c0.4,0.4,0.6,0.7,0.7,0.9l21.4,33.4V48c0-0.6,0.2-1.1,0.6-1.4c0.4-0.4,0.8-0.6,1.4-0.6h8.2c0.6,0,1.1,0.2,1.4,0.6
	c0.4,0.4,0.6,0.9,0.6,1.4v52c0,0.5-0.2,1-0.6,1.4c-0.4,0.4-0.9,0.6-1.4,0.6h-7.4c-0.8,0-1.4-0.2-1.8-0.6c-0.3-0.4-0.6-0.7-0.7-0.9
	l-21.3-32.3V100c0,0.6-0.2,1.1-0.6,1.4c-0.4,0.4-0.9,0.6-1.4,0.6H472.4z M529.4,102c-0.6,0-1.1-0.2-1.4-0.6
	c-0.4-0.4-0.6-0.9-0.6-1.4V48c0-0.6,0.2-1.1,0.6-1.4c0.4-0.4,0.9-0.6,1.4-0.6h36.2c0.6,0,1.1,0.2,1.4,0.6c0.4,0.4,0.6,0.9,0.6,1.4
	v6.4c0,0.5-0.2,1-0.6,1.4c-0.4,0.4-0.9,0.6-1.4,0.6h-25.9v12.6h24.2c0.6,0,1.1,0.2,1.4,0.6c0.4,0.4,0.6,0.9,0.6,1.4v5.9
	c0,0.5-0.2,1-0.6,1.4c-0.4,0.4-0.9,0.6-1.4,0.6h-24.2v13h26.6c0.6,0,1.1,0.2,1.4,0.6c0.4,0.4,0.6,0.9,0.6,1.4v6.3
	c0,0.6-0.2,1.1-0.6,1.4c-0.4,0.4-0.9,0.6-1.4,0.6H529.4z M599.6,102.8c-5,0-9.3-0.8-12.8-2.5c-3.5-1.7-6.2-4.2-8.1-7.4
	c-1.9-3.3-3-7.2-3.2-11.8c-0.1-2.2-0.1-4.5-0.1-7s0-4.9,0.1-7.2c0.2-4.6,1.3-8.5,3.2-11.7c2-3.3,4.7-5.7,8.2-7.4
	c3.5-1.7,7.7-2.6,12.6-2.6c3.6,0,6.8,0.5,9.8,1.4c2.9,0.9,5.5,2.2,7.6,3.9c2.1,1.7,3.8,3.7,5,6c1.2,2.3,1.8,4.9,1.9,7.7
	c0,0.5-0.2,0.9-0.6,1.2c-0.3,0.3-0.7,0.5-1.2,0.5h-9.1c-0.6,0-1.1-0.2-1.5-0.5c-0.4-0.3-0.7-0.9-0.9-1.6c-0.8-3.1-2.1-5.3-4-6.5
	c-1.9-1.2-4.2-1.8-7-1.8c-3.3,0-5.9,0.9-7.8,2.7c-1.9,1.8-3,4.8-3.1,9c-0.2,4.4-0.2,8.9,0,13.4c0.2,4.2,1.2,7.2,3.1,9
	s4.5,2.7,7.8,2.7c2.8,0,5.1-0.6,7-1.8c1.9-1.2,3.3-3.4,4-6.5c0.2-0.8,0.5-1.3,0.9-1.6c0.4-0.3,0.9-0.5,1.5-0.5h9.1
	c0.5,0,0.9,0.2,1.2,0.5c0.4,0.3,0.6,0.7,0.6,1.2c-0.1,2.8-0.7,5.4-1.9,7.7c-1.2,2.3-2.8,4.3-5,6c-2.1,1.7-4.7,3-7.6,3.9
	C606.4,102.3,603.2,102.8,599.6,102.8z M647.1,102c-0.6,0-1.1-0.2-1.4-0.6c-0.4-0.4-0.6-0.9-0.6-1.4V57.1h-14.6
	c-0.5,0-1-0.2-1.4-0.6c-0.4-0.4-0.6-0.8-0.6-1.4V48c0-0.6,0.2-1.1,0.6-1.4c0.4-0.4,0.8-0.6,1.4-0.6h41.9c0.6,0,1.1,0.2,1.4,0.6
	c0.4,0.4,0.6,0.9,0.6,1.4v7.2c0,0.5-0.2,1-0.6,1.4c-0.4,0.4-0.9,0.6-1.4,0.6H658V100c0,0.6-0.2,1.1-0.6,1.4s-0.9,0.6-1.4,0.6H647.1z
	 M700.8,102c-0.6,0-1-0.2-1.4-0.5c-0.3-0.4-0.5-0.8-0.5-1.4V47.9c0-0.6,0.2-1,0.5-1.4c0.3-0.4,0.8-0.6,1.4-0.6H719
	c5.5,0,9.9,0.8,13.3,2.5c3.4,1.7,5.8,4.1,7.4,7.4c1.5,3.2,2.3,7.1,2.4,11.8c0.1,2.4,0.1,4.5,0.1,6.3s0,3.9-0.1,6.2
	c-0.1,4.9-0.9,9-2.5,12.2c-1.5,3.2-3.9,5.6-7.2,7.2c-3.3,1.5-7.6,2.3-13,2.3H700.8z M706.8,95.2H719c3.7,0,6.6-0.5,8.8-1.5
	c2.2-1,3.8-2.6,4.7-4.9c1-2.2,1.5-5.2,1.6-8.9c0.1-1.6,0.2-3,0.2-4.2c0-1.2,0-2.4,0-3.6c0-1.2-0.1-2.6-0.2-4.2
	c-0.1-5.2-1.3-9-3.7-11.4c-2.3-2.5-6.3-3.8-11.8-3.8h-11.8V95.2z M774.2,102.8c-4.5,0-8.4-0.8-11.7-2.3c-3.3-1.6-5.8-4-7.5-7.3
	c-1.8-3.3-2.7-7.4-3-12.4c-0.1-2.3-0.1-4.6-0.1-6.7c0-2.2,0-4.5,0.1-6.8c0.2-4.9,1.2-9,3-12.2c1.9-3.3,4.4-5.8,7.7-7.4
	c3.3-1.7,7.1-2.5,11.4-2.5c4.4,0,8.2,0.8,11.4,2.5c3.3,1.6,5.9,4.1,7.8,7.4c1.9,3.3,2.9,7.3,3,12.2c0.1,2.3,0.2,4.6,0.2,6.8
	c0,2.1-0.1,4.4-0.2,6.7c-0.2,5-1.1,9.1-3,12.4c-1.8,3.3-4.3,5.7-7.5,7.3C782.7,102,778.8,102.8,774.2,102.8z M774.2,96
	c4.1,0,7.4-1.2,10-3.7c2.6-2.5,4-6.4,4.2-11.9c0.1-2.4,0.2-4.5,0.2-6.4c0-1.9-0.1-4.1-0.2-6.4c-0.1-3.7-0.8-6.7-2.1-9
	c-1.2-2.3-2.9-4-5-5c-2.1-1.1-4.5-1.6-7.2-1.6c-2.6,0-5,0.5-7,1.6c-2.1,1.1-3.8,2.7-5,5c-1.2,2.3-1.9,5.3-2.1,9
	c-0.1,2.3-0.1,4.5-0.1,6.4c0,1.9,0,4,0.1,6.4c0.2,5.5,1.6,9.5,4.2,11.9C766.9,94.8,770.2,96,774.2,96z M828.5,102.8
	c-4.9,0-9-0.9-12.2-2.7c-3.2-1.8-5.6-4.3-7.3-7.6c-1.7-3.3-2.6-7-2.7-11.4c-0.1-2.2-0.1-4.5-0.1-7s0-4.9,0.1-7.2
	c0.2-4.3,1.1-8.1,2.7-11.4c1.7-3.3,4.1-5.8,7.3-7.6c3.3-1.8,7.3-2.7,12.2-2.7c3.7,0,6.9,0.5,9.7,1.5c2.8,1,5.1,2.4,6.9,4.1
	c1.9,1.7,3.3,3.6,4.2,5.8c1,2.1,1.5,4.2,1.6,6.5c0.1,0.5-0.1,0.9-0.5,1.2c-0.3,0.3-0.7,0.5-1.2,0.5h-4.4c-0.5,0-0.9-0.1-1.3-0.4
	c-0.3-0.3-0.6-0.7-0.7-1.4c-0.9-4.2-2.6-7-5.1-8.6c-2.5-1.5-5.5-2.3-9.3-2.3c-4.3,0-7.7,1.2-10.2,3.7c-2.5,2.4-3.9,6.3-4.1,11.6
	c-0.2,4.4-0.2,8.9,0,13.4c0.2,5.3,1.6,9.2,4.1,11.7c2.5,2.4,5.9,3.6,10.2,3.6c3.7,0,6.8-0.8,9.3-2.3c2.5-1.5,4.2-4.4,5.1-8.6
	c0.2-0.7,0.4-1.2,0.7-1.4c0.4-0.3,0.8-0.4,1.3-0.4h4.4c0.5,0,0.9,0.2,1.2,0.5c0.4,0.3,0.5,0.7,0.5,1.2c-0.1,2.2-0.6,4.4-1.6,6.6
	c-1,2.1-2.4,4-4.2,5.7c-1.8,1.7-4.1,3.1-6.9,4.1C835.4,102.3,832.1,102.8,828.5,102.8z M879.6,102.8c-4.6,0-8.5-0.7-11.7-2.1
	c-3.1-1.4-5.6-3.3-7.3-5.5c-1.7-2.3-2.5-4.7-2.6-7.3c0-0.4,0.2-0.8,0.5-1.1c0.4-0.4,0.8-0.6,1.3-0.6h4.1c0.6,0,1.1,0.2,1.4,0.5
	s0.5,0.7,0.6,1.1c0.3,1.3,0.9,2.6,1.9,3.8c1.1,1.2,2.5,2.3,4.4,3.1c1.9,0.8,4.4,1.2,7.4,1.2c4.6,0,7.9-0.8,10.1-2.4
	c2.2-1.7,3.3-3.8,3.3-6.6c0-1.9-0.6-3.4-1.8-4.5c-1.1-1.2-2.9-2.2-5.2-3.1c-2.3-0.9-5.4-1.9-9.1-3c-3.9-1.1-7.1-2.3-9.7-3.7
	c-2.6-1.3-4.5-3-5.8-5c-1.2-2-1.8-4.5-1.8-7.5c0-2.9,0.8-5.4,2.3-7.7c1.5-2.3,3.8-4.1,6.6-5.4c2.9-1.3,6.5-2,10.6-2
	c3.3,0,6.2,0.5,8.6,1.4c2.5,0.9,4.6,2,6.2,3.5c1.7,1.4,2.9,3,3.8,4.7c0.9,1.7,1.3,3.3,1.4,4.9c0,0.4-0.1,0.7-0.4,1.1
	c-0.3,0.3-0.7,0.5-1.3,0.5h-4.2c-0.4,0-0.8-0.1-1.2-0.3c-0.4-0.2-0.7-0.6-0.9-1.2c-0.3-2.2-1.5-4-3.7-5.5c-2.1-1.5-4.9-2.2-8.3-2.2
	c-3.5,0-6.3,0.7-8.5,2c-2.1,1.3-3.2,3.4-3.2,6.2c0,1.8,0.5,3.3,1.5,4.6c1,1.2,2.6,2.2,4.8,3.1c2.2,0.9,5,1.9,8.6,2.9
	c4.3,1.2,7.8,2.4,10.5,3.8c2.7,1.3,4.7,2.9,6,4.9c1.3,1.9,2,4.4,2,7.4c0,3.4-0.9,6.2-2.6,8.6c-1.8,2.3-4.2,4.2-7.4,5.4
	C887.6,102.2,883.9,102.8,879.6,102.8z"/>
<image style="overflow:visible;" width="202" height="192" xlink:href="6363B7E9.jpg"  transform="matrix(1 0 0 1 211.353 -327)">
</image>
<image style="overflow:visible;" width="76" height="51" xlink:href="6363B7EA.jpg"  transform="matrix(1 0 0 1 687.5 -186)">
</image>
</svg>
