<svg width="905" height="150" viewBox="0 0 905 150" fill="none" xmlns="http://www.w3.org/2000/svg">
<circle cx="75" cy="75" r="75" fill="#7532FA"/>
<circle cx="150" cy="75" r="73.5" stroke="#7532FA" stroke-width="3"/>
<path d="M323.874 102.8C318.861 102.8 314.594 101.973 311.074 100.32C307.608 98.6133 304.914 96.16 302.994 92.96C301.074 89.7067 300.008 85.76 299.794 81.12C299.741 78.9333 299.714 76.5867 299.714 74.08C299.714 71.5733 299.741 69.1733 299.794 66.88C300.008 62.2933 301.074 58.4 302.994 55.2C304.968 51.9467 307.714 49.4667 311.234 47.76C314.754 46.0533 318.968 45.2 323.874 45.2C327.448 45.2 330.701 45.6533 333.634 46.56C336.568 47.4667 339.101 48.7733 341.234 50.48C343.368 52.1867 345.021 54.1867 346.194 56.48C347.368 58.7733 348.008 61.3333 348.114 64.16C348.114 64.64 347.928 65.04 347.554 65.36C347.234 65.68 346.834 65.84 346.354 65.84H337.234C336.594 65.84 336.088 65.68 335.714 65.36C335.341 65.04 335.048 64.5067 334.834 63.76C334.034 60.6133 332.701 58.4533 330.834 57.28C328.968 56.1067 326.648 55.52 323.874 55.52C320.568 55.52 317.954 56.4267 316.034 58.24C314.114 60.0533 313.074 63.0667 312.914 67.28C312.754 71.6533 312.754 76.1333 312.914 80.72C313.074 84.9333 314.114 87.9467 316.034 89.76C317.954 91.5733 320.568 92.48 323.874 92.48C326.648 92.48 328.968 91.8933 330.834 90.72C332.754 89.4933 334.088 87.3333 334.834 84.24C335.048 83.44 335.341 82.9067 335.714 82.64C336.088 82.32 336.594 82.16 337.234 82.16H346.354C346.834 82.16 347.234 82.32 347.554 82.64C347.928 82.96 348.114 83.36 348.114 83.84C348.008 86.6667 347.368 89.2267 346.194 91.52C345.021 93.8133 343.368 95.8133 341.234 97.52C339.101 99.2267 336.568 100.533 333.634 101.44C330.701 102.347 327.448 102.8 323.874 102.8ZM379.343 102.8C374.49 102.8 370.303 102 366.783 100.4C363.263 98.8 360.516 96.4 358.543 93.2C356.57 89.9467 355.503 85.8667 355.343 80.96C355.29 78.6667 355.263 76.4 355.263 74.16C355.263 71.8667 355.29 69.5467 355.343 67.2C355.503 62.4 356.57 58.3733 358.543 55.12C360.57 51.8133 363.343 49.3333 366.863 47.68C370.436 46.0267 374.596 45.2 379.343 45.2C384.036 45.2 388.143 46.0267 391.663 47.68C395.236 49.3333 398.036 51.8133 400.063 55.12C402.09 58.3733 403.156 62.4 403.263 67.2C403.37 69.5467 403.423 71.8667 403.423 74.16C403.423 76.4 403.37 78.6667 403.263 80.96C403.103 85.8667 402.036 89.9467 400.063 93.2C398.09 96.4 395.343 98.8 391.823 100.4C388.303 102 384.143 102.8 379.343 102.8ZM379.343 92.48C382.436 92.48 384.97 91.5467 386.943 89.68C388.97 87.76 390.036 84.72 390.143 80.56C390.25 78.2133 390.303 76.0267 390.303 74C390.303 71.92 390.25 69.7333 390.143 67.44C390.09 64.6667 389.583 62.4 388.623 60.64C387.663 58.88 386.383 57.6 384.783 56.8C383.236 55.9467 381.423 55.52 379.343 55.52C377.263 55.52 375.423 55.9467 373.823 56.8C372.223 57.6 370.943 58.88 369.983 60.64C369.076 62.4 368.57 64.6667 368.463 67.44C368.41 69.7333 368.383 71.92 368.383 74C368.383 76.0267 368.41 78.2133 368.463 80.56C368.623 84.72 369.69 87.76 371.663 89.68C373.636 91.5467 376.196 92.48 379.343 92.48ZM415.353 102C414.766 102 414.286 101.813 413.913 101.44C413.54 101.067 413.353 100.587 413.353 100V48C413.353 47.4133 413.54 46.9333 413.913 46.56C414.286 46.1867 414.766 46 415.353 46H422.633C423.433 46 424.02 46.1867 424.393 46.56C424.766 46.9333 425.006 47.2267 425.113 47.44L446.473 80.8V48C446.473 47.4133 446.66 46.9333 447.033 46.56C447.406 46.1867 447.86 46 448.393 46H456.553C457.14 46 457.62 46.1867 457.993 46.56C458.366 46.9333 458.553 47.4133 458.553 48V100C458.553 100.533 458.366 101.013 457.993 101.44C457.62 101.813 457.14 102 456.553 102H449.193C448.393 102 447.806 101.813 447.433 101.44C447.113 101.013 446.873 100.72 446.713 100.56L425.433 68.24V100C425.433 100.587 425.246 101.067 424.873 101.44C424.5 101.813 424.02 102 423.433 102H415.353ZM472.384 102C471.798 102 471.318 101.813 470.944 101.44C470.571 101.067 470.384 100.587 470.384 100V48C470.384 47.4133 470.571 46.9333 470.944 46.56C471.318 46.1867 471.798 46 472.384 46H479.664C480.464 46 481.051 46.1867 481.424 46.56C481.798 46.9333 482.038 47.2267 482.144 47.44L503.504 80.8V48C503.504 47.4133 503.691 46.9333 504.064 46.56C504.438 46.1867 504.891 46 505.424 46H513.584C514.171 46 514.651 46.1867 515.024 46.56C515.398 46.9333 515.584 47.4133 515.584 48V100C515.584 100.533 515.398 101.013 515.024 101.44C514.651 101.813 514.171 102 513.584 102H506.224C505.424 102 504.838 101.813 504.464 101.44C504.144 101.013 503.904 100.72 503.744 100.56L482.464 68.24V100C482.464 100.587 482.278 101.067 481.904 101.44C481.531 101.813 481.051 102 480.464 102H472.384ZM529.415 102C528.829 102 528.349 101.813 527.975 101.44C527.602 101.067 527.415 100.587 527.415 100V48C527.415 47.4133 527.602 46.9333 527.975 46.56C528.349 46.1867 528.829 46 529.415 46H565.655C566.242 46 566.722 46.1867 567.095 46.56C567.469 46.9333 567.655 47.4133 567.655 48V54.4C567.655 54.9333 567.469 55.3867 567.095 55.76C566.722 56.1333 566.242 56.32 565.655 56.32H539.735V68.88H563.895C564.482 68.88 564.962 69.0667 565.335 69.44C565.709 69.8133 565.895 70.2933 565.895 70.88V76.8C565.895 77.3333 565.709 77.7867 565.335 78.16C564.962 78.5333 564.482 78.72 563.895 78.72H539.735V91.68H566.295C566.882 91.68 567.362 91.8667 567.735 92.24C568.109 92.6133 568.295 93.0933 568.295 93.68V100C568.295 100.587 568.109 101.067 567.735 101.44C567.362 101.813 566.882 102 566.295 102H529.415ZM599.577 102.8C594.564 102.8 590.297 101.973 586.777 100.32C583.311 98.6133 580.617 96.16 578.697 92.96C576.777 89.7067 575.711 85.76 575.497 81.12C575.444 78.9333 575.417 76.5867 575.417 74.08C575.417 71.5733 575.444 69.1733 575.497 66.88C575.711 62.2933 576.777 58.4 578.697 55.2C580.671 51.9467 583.417 49.4667 586.937 47.76C590.457 46.0533 594.671 45.2 599.577 45.2C603.151 45.2 606.404 45.6533 609.337 46.56C612.271 47.4667 614.804 48.7733 616.937 50.48C619.071 52.1867 620.724 54.1867 621.897 56.48C623.071 58.7733 623.711 61.3333 623.817 64.16C623.817 64.64 623.631 65.04 623.257 65.36C622.937 65.68 622.537 65.84 622.057 65.84H612.937C612.297 65.84 611.791 65.68 611.417 65.36C611.044 65.04 610.751 64.5067 610.537 63.76C609.737 60.6133 608.404 58.4533 606.537 57.28C604.671 56.1067 602.351 55.52 599.577 55.52C596.271 55.52 593.657 56.4267 591.737 58.24C589.817 60.0533 588.777 63.0667 588.617 67.28C588.457 71.6533 588.457 76.1333 588.617 80.72C588.777 84.9333 589.817 87.9467 591.737 89.76C593.657 91.5733 596.271 92.48 599.577 92.48C602.351 92.48 604.671 91.8933 606.537 90.72C608.457 89.4933 609.791 87.3333 610.537 84.24C610.751 83.44 611.044 82.9067 611.417 82.64C611.791 82.32 612.297 82.16 612.937 82.16H622.057C622.537 82.16 622.937 82.32 623.257 82.64C623.631 82.96 623.817 83.36 623.817 83.84C623.711 86.6667 623.071 89.2267 621.897 91.52C620.724 93.8133 619.071 95.8133 616.937 97.52C614.804 99.2267 612.271 100.533 609.337 101.44C606.404 102.347 603.151 102.8 599.577 102.8ZM647.126 102C646.539 102 646.059 101.813 645.686 101.44C645.313 101.067 645.126 100.587 645.126 100V57.12H630.566C630.033 57.12 629.579 56.9333 629.206 56.56C628.833 56.1867 628.646 55.7333 628.646 55.2V48C628.646 47.4133 628.833 46.9333 629.206 46.56C629.579 46.1867 630.033 46 630.566 46H672.486C673.073 46 673.553 46.1867 673.926 46.56C674.299 46.9333 674.486 47.4133 674.486 48V55.2C674.486 55.7333 674.299 56.1867 673.926 56.56C673.553 56.9333 673.073 57.12 672.486 57.12H658.006V100C658.006 100.587 657.819 101.067 657.446 101.44C657.073 101.813 656.593 102 656.006 102H647.126ZM700.842 102C700.256 102 699.802 101.84 699.482 101.52C699.162 101.147 699.002 100.693 699.002 100.16V47.92C699.002 47.3333 699.162 46.88 699.482 46.56C699.802 46.1867 700.256 46 700.842 46H719.002C724.496 46 728.922 46.8267 732.282 48.48C735.642 50.1333 738.096 52.5867 739.642 55.84C741.189 59.04 741.989 62.9867 742.042 67.68C742.096 70.08 742.122 72.1867 742.122 74C742.122 75.8133 742.096 77.8933 742.042 80.24C741.936 85.1467 741.109 89.2267 739.562 92.48C738.069 95.68 735.669 98.08 732.362 99.68C729.109 101.227 724.789 102 719.402 102H700.842ZM706.842 95.2H719.002C722.682 95.2 725.616 94.6933 727.802 93.68C729.989 92.6667 731.562 91.04 732.522 88.8C733.536 86.56 734.069 83.6 734.122 79.92C734.229 78.32 734.282 76.9333 734.282 75.76C734.282 74.5333 734.282 73.3333 734.282 72.16C734.282 70.9333 734.229 69.5467 734.122 68C734.016 62.8267 732.789 59.0133 730.442 56.56C728.096 54.0533 724.149 52.8 718.602 52.8H706.842V95.2ZM774.239 102.8C769.705 102.8 765.812 102.027 762.559 100.48C759.305 98.88 756.799 96.4533 755.039 93.2C753.279 89.8933 752.292 85.76 752.079 80.8C752.025 78.4533 751.999 76.2133 751.999 74.08C751.999 71.8933 752.025 69.6267 752.079 67.28C752.292 62.3733 753.305 58.2933 755.119 55.04C756.985 51.7333 759.545 49.28 762.799 47.68C766.105 46.0267 769.919 45.2 774.239 45.2C778.612 45.2 782.425 46.0267 785.679 47.68C788.985 49.28 791.572 51.7333 793.439 55.04C795.305 58.2933 796.319 62.3733 796.479 67.28C796.585 69.6267 796.639 71.8933 796.639 74.08C796.639 76.2133 796.585 78.4533 796.479 80.8C796.319 85.76 795.332 89.8933 793.519 93.2C791.759 96.4533 789.252 98.88 785.999 100.48C782.745 102.027 778.825 102.8 774.239 102.8ZM774.239 96C778.345 96 781.679 94.7733 784.239 92.32C786.852 89.8667 788.265 85.8933 788.479 80.4C788.585 78 788.639 75.8667 788.639 74C788.639 72.08 788.585 69.9467 788.479 67.6C788.372 63.92 787.679 60.9333 786.399 58.64C785.172 56.3467 783.519 54.6667 781.439 53.6C779.359 52.5333 776.959 52 774.239 52C771.625 52 769.279 52.5333 767.199 53.6C765.119 54.6667 763.439 56.3467 762.159 58.64C760.932 60.9333 760.239 63.92 760.079 67.6C760.025 69.9467 759.999 72.08 759.999 74C759.999 75.8667 760.025 78 760.079 80.4C760.292 85.8933 761.705 89.8667 764.319 92.32C766.932 94.7733 770.239 96 774.239 96ZM828.459 102.8C823.553 102.8 819.473 101.893 816.219 100.08C813.019 98.2667 810.593 95.7333 808.939 92.48C807.286 89.2267 806.379 85.44 806.219 81.12C806.166 78.9333 806.139 76.5867 806.139 74.08C806.139 71.5733 806.166 69.1733 806.219 66.88C806.379 62.56 807.286 58.7733 808.939 55.52C810.593 52.2667 813.019 49.7333 816.219 47.92C819.473 46.1067 823.553 45.2 828.459 45.2C832.139 45.2 835.366 45.7067 838.139 46.72C840.913 47.7333 843.206 49.0933 845.019 50.8C846.886 52.5067 848.299 54.4267 849.259 56.56C850.219 58.64 850.753 60.8 850.859 63.04C850.913 63.52 850.753 63.92 850.379 64.24C850.059 64.56 849.659 64.72 849.179 64.72H844.779C844.299 64.72 843.873 64.5867 843.499 64.32C843.179 64.0533 842.939 63.5733 842.779 62.88C841.873 58.72 840.166 55.8667 837.659 54.32C835.206 52.7733 832.113 52 828.379 52C824.113 52 820.726 53.2267 818.219 55.68C815.713 58.08 814.353 61.9467 814.139 67.28C813.979 71.6533 813.979 76.1333 814.139 80.72C814.353 86.0533 815.713 89.9467 818.219 92.4C820.726 94.8 824.113 96 828.379 96C832.113 96 835.206 95.2267 837.659 93.68C840.166 92.1333 841.873 89.28 842.779 85.12C842.939 84.4267 843.179 83.9467 843.499 83.68C843.873 83.4133 844.299 83.28 844.779 83.28H849.179C849.659 83.28 850.059 83.44 850.379 83.76C850.753 84.08 850.913 84.48 850.859 84.96C850.753 87.2 850.219 89.3867 849.259 91.52C848.299 93.6 846.886 95.4933 845.019 97.2C843.206 98.9067 840.913 100.267 838.139 101.28C835.366 102.293 832.139 102.8 828.459 102.8ZM879.58 102.8C874.94 102.8 871.047 102.107 867.9 100.72C864.754 99.28 862.327 97.44 860.62 95.2C858.967 92.9067 858.087 90.48 857.98 87.92C857.98 87.4933 858.14 87.12 858.46 86.8C858.834 86.4267 859.26 86.24 859.74 86.24H863.82C864.46 86.24 864.94 86.4 865.26 86.72C865.58 87.04 865.794 87.4133 865.9 87.84C866.167 89.12 866.807 90.4 867.82 91.68C868.887 92.9067 870.354 93.9467 872.22 94.8C874.14 95.6 876.594 96 879.58 96C884.167 96 887.527 95.2 889.66 93.6C891.847 91.9467 892.94 89.76 892.94 87.04C892.94 85.1733 892.354 83.68 891.18 82.56C890.06 81.3867 888.327 80.3467 885.98 79.44C883.634 78.5333 880.594 77.5467 876.86 76.48C872.967 75.36 869.74 74.1333 867.18 72.8C864.62 71.4667 862.7 69.8133 861.42 67.84C860.194 65.8667 859.58 63.36 859.58 60.32C859.58 57.44 860.354 54.88 861.9 52.64C863.447 50.3467 865.66 48.5333 868.54 47.2C871.474 45.8667 875.02 45.2 879.18 45.2C882.487 45.2 885.367 45.6533 887.82 46.56C890.327 47.4133 892.407 48.5867 894.06 50.08C895.714 51.52 896.967 53.0933 897.82 54.8C898.674 56.4533 899.127 58.08 899.18 59.68C899.18 60.0533 899.047 60.4267 898.78 60.8C898.514 61.12 898.087 61.28 897.5 61.28H893.26C892.887 61.28 892.487 61.1733 892.06 60.96C891.687 60.7467 891.394 60.3467 891.18 59.76C890.86 57.5733 889.634 55.7333 887.5 54.24C885.367 52.7467 882.594 52 879.18 52C875.714 52 872.887 52.6667 870.7 54C868.567 55.3333 867.5 57.4133 867.5 60.24C867.5 62.0533 868.007 63.5733 869.02 64.8C870.034 65.9733 871.634 67.0133 873.82 67.92C876.007 68.8267 878.86 69.7867 882.38 70.8C886.647 71.9733 890.14 73.2267 892.86 74.56C895.58 75.84 897.58 77.4667 898.86 79.44C900.194 81.36 900.86 83.84 900.86 86.88C900.86 90.24 899.98 93.12 898.22 95.52C896.46 97.8667 893.98 99.68 890.78 100.96C887.634 102.187 883.9 102.8 879.58 102.8Z" fill="#7532FA"/>
</svg>
